<svg xmlns="http://www.w3.org/2000/svg" version="1.1" width="3300" height="2000"><g id="Notes"><style>
    text {
      font-family: monospace;
      text-anchor: middle;
    }
    text.emphasis {
      font-weight:bold;
    }
    text.lanchor {
      text-anchor: start;
    }
  </style><rect height="2200" id="artboard" fill="white" width="3300" x="0" y="0"/><line id="" style="fill:none;stroke:black;stroke-width:0.5;" x1="263" x2="3036" y1="292" y2="292"/><text class="lanchor emphasis" transform="matrix(1 0 0 1 263 322)">Weight/Scale Variations</text><text transform="matrix(1 0 0 1 559.711 322)">Ultralight</text><text transform="matrix(1 0 0 1 856.422 322)">Thin</text><text transform="matrix(1 0 0 1 1153.13 322)">Light</text><text transform="matrix(1 0 0 1 1449.84 322)">Regular</text><text transform="matrix(1 0 0 1 1746.56 322)">Medium</text><text transform="matrix(1 0 0 1 2043.27 322)">Semibold</text><text transform="matrix(1 0 0 1 2339.98 322)">Bold</text><text transform="matrix(1 0 0 1 2636.69 322)">Heavy</text><text transform="matrix(1 0 0 1 2933.4 322)">Black</text><text id="template-version" style="text-anchor: end;" transform="matrix(1 0 0 1 3036 1933)">Template v.1.0</text><text class="lanchor" transform="matrix(1 0 0 1 263 726)">Small</text><text class="lanchor" transform="matrix(1 0 0 1 263 1156)">Medium</text><text class="lanchor" transform="matrix(1 0 0 1 263 1586)">Large</text></g><g id="Guides"><g id="H-reference" style="fill:#27AAE1;stroke:none;" transform="matrix(1 0 0 1 339 696)"><path d="M 54.9316 0 L 57.666 0 L 30.5664 -70.459 L 28.0762 -70.459 L 0.976562 0 L 3.66211 0 L 12.9395 -24.4629 L 45.7031 -24.4629 Z M 29.1992 -67.0898 L 29.4434 -67.0898 L 44.8242 -26.709 L 13.8184 -26.709 Z"/></g><line id="Baseline-S" style="fill:none;stroke:#27AAE1;opacity:1;stroke-width:0.577;" x1="263" x2="3036" y1="696" y2="696"/><line id="Capline-S" style="fill:none;stroke:#27AAE1;opacity:1;stroke-width:0.577;" x1="263" x2="3036" y1="625.541" y2="625.541"/><g id="H-reference" style="fill:#27AAE1;stroke:none;" transform="matrix(1 0 0 1 339 1126)"><path d="M 54.9316 0 L 57.666 0 L 30.5664 -70.459 L 28.0762 -70.459 L 0.976562 0 L 3.66211 0 L 12.9395 -24.4629 L 45.7031 -24.4629 Z M 29.1992 -67.0898 L 29.4434 -67.0898 L 44.8242 -26.709 L 13.8184 -26.709 Z"/></g><line id="Baseline-M" style="fill:none;stroke:#27AAE1;opacity:1;stroke-width:0.577;" x1="263" x2="3036" y1="1126" y2="1126"/><line id="Capline-M" style="fill:none;stroke:#27AAE1;opacity:1;stroke-width:0.577;" x1="263" x2="3036" y1="1055.54" y2="1055.54"/><g id="H-reference" style="fill:#27AAE1;stroke:none;" transform="matrix(1 0 0 1 339 1556)"><path d="M 54.9316 0 L 57.666 0 L 30.5664 -70.459 L 28.0762 -70.459 L 0.976562 0 L 3.66211 0 L 12.9395 -24.4629 L 45.7031 -24.4629 Z M 29.1992 -67.0898 L 29.4434 -67.0898 L 44.8242 -26.709 L 13.8184 -26.709 Z"/></g><line id="Baseline-L" style="fill:none;stroke:#27AAE1;opacity:1;stroke-width:0.577;" x1="263" x2="3036" y1="1556" y2="1556"/><line id="Capline-L" style="fill:none;stroke:#27AAE1;opacity:1;stroke-width:0.577;" x1="263" x2="3036" y1="1485.54" y2="1485.54"/><rect height="119.336" id="left-margin" style="fill:darkred;stroke:none;opacity:0.4;" width="12.4512" x="1394.06" y="1030.79"/><rect height="119.336" id="right-margin" style="fill:darkgreen;stroke:none;opacity:0.4;" width="12.4512" x="1502.5112" y="1030.79"/><rect x="1406.5112" y="1045" width="96" height="96" fill="none" stroke="blue" stroke-dasharray="5"/><rect x="1394.06" y="1030.79" width="120.9024" height="119.336" fill="none" stroke="blue"/></g><g id="Symbols"><g id="Bold-L" transform="matrix(1 0 0 1 2266 1556)"><path d="M70.95 20.401 Q66.596 20.401 63.532 17.338 Q60.469 14.274 60.469 9.92 V-27.329 L22.898 -75.542 Q19.027 -80.38 21.688 -85.701 Q24.349 -91.022 30.315 -91.022 H124.485 Q130.451 -91.022 133.112 -85.701 Q135.773 -80.38 132.064 -75.542 L94.493 -27.329 V11.21 Q94.493 15.241 91.832 17.821 Q89.171 20.401 85.14 20.401 H70.95 Z M77.4 -30.554  113.036 -75.704 H41.925 L77.4 -30.554 Z"/></g><g id="Semibold-L" transform="matrix(1 0 0 1 1970.27 1556)"><path d="M70.95 18.649 Q67.297 18.649 64.759 16.111 Q62.221 13.573 62.221 9.92 V-27.96 L24.229 -76.594 Q21.061 -80.52 23.265 -84.86 Q25.47 -89.2 30.315 -89.2 H124.485 Q129.33 -89.2 131.535 -84.86 Q133.739 -80.52 130.662 -76.594 L92.67 -27.96 V10.649 Q92.67 14.12 90.36 16.384 Q88.05 18.649 84.579 18.649 H70.95 Z M77.4 -29.502  114.368 -76.335 H40.523 L77.4 -29.502 Z"/></g><g id="Medium-L" transform="matrix(1 0 0 1 1674.31 1556)"><path d="M70.95 17.334 Q67.823 17.334 65.68 15.19 Q63.536 13.047 63.536 9.92 V-28.433 L25.229 -77.383 Q22.585 -80.625 24.449 -84.229 Q26.312 -87.833 30.315 -87.833 H124.485 Q128.488 -87.833 130.351 -84.229 Q132.215 -80.625 129.61 -77.383 L91.303 -28.433 V10.228 Q91.303 13.278 89.255 15.306 Q87.208 17.334 84.158 17.334 H70.95 Z M77.4 -28.713  115.367 -76.808 H39.471 L77.4 -28.713 Z"/></g><g id="Regular-L" transform="matrix(1 0 0 1 1378.56 1556)"><path d="M70.95 16.37 Q68.209 16.37 66.354 14.516 Q64.5 12.661 64.5 9.92 V-28.78 L25.961 -77.961 Q23.704 -80.702 25.316 -83.766 Q26.929 -86.83 30.315 -86.83 H124.485 Q127.871 -86.83 129.484 -83.766 Q131.096 -80.702 128.839 -77.961 L90.3 -28.78 V9.92 Q90.3 12.661 88.446 14.516 Q86.591 16.37 83.85 16.37 H70.95 Z M77.4 -28.135  116.1 -77.155 H38.7 L77.4 -28.135 Z"/></g><g id="Light-L" transform="matrix(1 0 0 1 1082.77 1556)"><path d="M73.431 13.145 Q71 13.145 69.362 11.508 Q67.725 9.87 67.725 7.439 V-29.896 L30.799 -76.845 Q29.038 -78.904 30.309 -81.254 Q31.58 -83.605 34.098 -83.605 H120.702 Q123.22 -83.605 124.491 -81.254 Q125.762 -78.904 124.001 -76.845 L87.075 -29.896 V7.439 Q87.075 9.87 85.438 11.508 Q83.8 13.145 81.369 13.145 H73.431 Z M77.4 -29.499  114.301 -76.287 H40.499 L77.4 -29.499 Z"/></g><g id="Thin-L" transform="matrix(1 0 0 1 787.282 1556)"><path d="M75.912 9.92 Q73.79 9.92 72.37 8.5 Q70.95 7.08 70.95 4.958 V-31.013 L35.636 -75.729 Q34.371 -77.105 35.301 -78.743 Q36.232 -80.38 37.881 -80.38 H116.919 Q118.568 -80.38 119.499 -78.743 Q120.429 -77.105 119.164 -75.729 L83.85 -31.013 V4.958 Q83.85 7.08 82.43 8.5 Q81.01 9.92 78.888 9.92 H75.912 Z M77.4 -30.864  112.503 -75.418 H42.297 L77.4 -30.864 Z"/></g><g id="Ultralight-L" transform="matrix(1 0 0 1 491.205 1556)"><path d="M77.4 7.985 Q75.465 7.985 74.175 6.695 Q72.885 5.405 72.885 3.47 V-31.682 L38.539 -75.059 Q37.571 -76.026 38.297 -77.236 Q39.023 -78.445 40.151 -78.445 H114.649 Q115.778 -78.445 116.503 -77.236 Q117.229 -76.026 116.261 -75.059 L81.915 -31.682 V3.47 Q81.915 5.405 80.625 6.695 Q79.335 7.985 77.4 7.985 Z M77.4 -31.682  111.424 -74.897 H43.376 L77.4 -31.682 Z"/></g><g id="Bold-M" transform="matrix(1 0 0 1 2281.8 1126)"><path d="M55 9.02 Q51.25 9.02 48.5 6.27 Q45.75 3.52 45.75 -0.23 V-28.73 L17.75 -64.73 Q14.125 -69.355 16.625 -74.417 Q19.125 -79.48 25 -79.48 H95 Q100.875 -79.48 103.375 -74.417 Q105.875 -69.355 102.25 -64.73 L74.25 -28.73 V1.145 Q74.25 4.52 72 6.77 Q69.75 9.02 66.375 9.02 H55 Z M60 -36.23  81.5 -63.73 H38.5 L60 -36.23 Z"/></g><g id="Semibold-M" transform="matrix(1 0 0 1 1985.97 1126)"><path d="M55 7.172 Q51.956 7.172 49.777 4.993 Q47.598 2.814 47.598 -0.23 V-29.382 L19.163 -65.817 Q16.299 -69.518 18.282 -73.575 Q20.266 -77.632 25 -77.632 H95 Q99.734 -77.632 101.718 -73.575 Q103.701 -69.518 100.837 -65.817 L72.402 -29.382 V0.547 Q72.402 3.379 70.505 5.276 Q68.609 7.172 65.777 7.172 H55 Z M60 -35.143  82.913 -64.382 H37.087 L60 -35.143 Z"/></g><g id="Medium-M" transform="matrix(1 0 0 1 1689.91 1126)"><path d="M55 5.786 Q52.486 5.786 50.735 4.035 Q48.984 2.284 48.984 -0.23 V-29.871 L20.223 -66.632 Q17.929 -69.64 19.526 -72.943 Q21.122 -76.246 25 -76.246 H95 Q98.878 -76.246 100.474 -72.943 Q102.071 -69.64 99.777 -66.632 L71.016 -29.871 V0.099 Q71.016 2.523 69.385 4.155 Q67.753 5.786 65.329 5.786 H55 Z M60 -34.328  83.973 -64.871 H36.027 L60 -34.328 Z"/></g><g id="Regular-M" transform="matrix(1 0 0 1 1394.06 1126)"><path d="M55 4.77 Q52.875 4.77 51.438 3.333 Q50 1.895 50 -0.23 V-30.23 L21 -67.23 Q19.125 -69.73 20.438 -72.48 Q21.75 -75.23 25 -75.23 H95 Q98.25 -75.23 99.562 -72.48 Q100.875 -69.73 99 -67.23 L70 -30.23 V-0.23 Q70 1.895 68.562 3.333 Q67.125 4.77 65 4.77 H55 Z M60 -33.73  84.75 -65.23 H35.25 L60 -33.73 Z"/></g><g id="Light-M" transform="matrix(1 0 0 1 1098.18 1126)"><path d="M56.923 2.27 Q55.039 2.27 53.769 1.001 Q52.5 -0.269 52.5 -2.153 V-31.095 L24.51 -66.653 Q23.068 -68.576 24.092 -70.653 Q25.116 -72.73 27.548 -72.73 H92.452 Q94.884 -72.73 95.908 -70.653 Q96.932 -68.576 95.49 -66.653 L67.5 -31.095 V-2.153 Q67.5 -0.269 66.231 1.001 Q64.961 2.27 63.077 2.27 H56.923 Z M60 -33.73  84.75 -65.23 H35.25 L60 -33.73 Z"/></g><g id="Thin-M" transform="matrix(1 0 0 1 802.565 1126)"><path d="M58.846 -0.23 Q57.202 -0.23 56.101 -1.331 Q55 -2.432 55 -4.076 V-31.961 L28.019 -66.076 Q27.01 -67.422 27.745 -68.826 Q28.481 -70.23 30.096 -70.23 H89.904 Q91.519 -70.23 92.255 -68.826 Q92.99 -67.422 91.981 -66.076 L65 -31.961 V-4.076 Q65 -2.432 63.899 -1.331 Q62.798 -0.23 61.154 -0.23 H58.846 Z M60 -33.73  84.75 -65.23 H35.25 L60 -33.73 Z"/></g><g id="Ultralight-M" transform="matrix(1 0 0 1 506.415 1126)"><path d="M60 -1.73 Q58.5 -1.73 57.5 -2.73 Q56.5 -3.73 56.5 -5.23 V-32.48 L30.125 -65.73 Q29.375 -66.73 29.938 -67.73 Q30.5 -68.73 31.625 -68.73 H88.375 Q89.5 -68.73 90.062 -67.73 Q90.625 -66.73 89.875 -65.73 L63.5 -32.48 V-5.23 Q63.5 -3.73 62.5 -2.73 Q61.5 -1.73 60 -1.73 Z M60 -33.73  84.75 -65.23 H35.25 L60 -33.73 Z"/></g><g id="Bold-S" transform="matrix(1 0 0 1 2294.23 696)"><path d="M44.99 -3.473 Q42.705 -3.473 40.979 -5.189 Q39.253 -6.905 39.253 -9.193 V-30.397 L16.865 -57.815 Q14.597 -60.675 16.15 -63.831 Q17.704 -66.987 21.303 -66.987 H73.377 Q76.976 -66.987 78.53 -63.831 Q80.084 -60.675 77.815 -57.815 L55.427 -30.397 V-8.108 Q55.427 -6.116 54.107 -4.794 Q52.787 -3.473 50.798 -3.473 H44.99 Z M47.34 -38.978  60.753 -55.349 H33.828 L47.34 -38.978 Z"/></g><g id="Semibold-S" transform="matrix(1 0 0 1 1998.1 696)"><path d="M44.99 -4.931 Q43.262 -4.931 41.986 -6.196 Q40.711 -7.462 40.711 -9.193 V-30.912 L17.98 -58.673 Q16.312 -60.804 17.458 -63.167 Q18.605 -65.529 21.303 -65.529 H73.377 Q76.075 -65.529 77.222 -63.167 Q78.368 -60.804 76.7 -58.673 L53.969 -30.912 V-8.58 Q53.969 -7.016 52.928 -5.973 Q51.887 -4.931 50.326 -4.931 H44.99 Z M47.34 -38.12  61.868 -55.864 H32.714 L47.34 -38.12 Z"/></g><g id="Medium-S" transform="matrix(1 0 0 1 1701.85 696)"><path d="M44.99 -6.024 Q43.68 -6.024 42.742 -6.952 Q41.804 -7.88 41.804 -9.193 V-31.298 L18.816 -59.316 Q17.598 -60.9 18.439 -62.668 Q19.28 -64.436 21.303 -64.436 H73.377 Q75.4 -64.436 76.241 -62.668 Q77.082 -60.9 75.864 -59.316 L52.876 -31.298 V-8.934 Q52.876 -7.692 52.044 -6.858 Q51.212 -6.024 49.972 -6.024 H44.99 Z M47.34 -37.477  62.704 -56.25 H31.877 L47.34 -37.477 Z"/></g><g id="Regular-S" transform="matrix(1 0 0 1 1405.73 696)"><path d="M44.99 -6.826 Q43.987 -6.826 43.296 -7.507 Q42.606 -8.187 42.606 -9.193 V-31.581 L19.429 -59.788 Q18.541 -60.971 19.158 -62.303 Q19.775 -63.634 21.303 -63.634 H73.377 Q74.905 -63.634 75.522 -62.303 Q76.139 -60.971 75.251 -59.788 L52.074 -31.581 V-9.193 Q52.074 -8.187 51.395 -7.507 Q50.716 -6.826 49.713 -6.826 H44.99 Z M47.34 -37.005  63.317 -56.533 H31.264 L47.34 -37.005 Z"/></g><g id="Light-S" transform="matrix(1 0 0 1 1109.75 696)"><path d="M46.508 -8.799 Q45.694 -8.799 45.136 -9.346 Q44.579 -9.894 44.579 -10.71 V-32.264 L22.198 -59.332 Q21.652 -60.061 22.042 -60.861 Q22.431 -61.661 23.314 -61.661 H71.366 Q72.249 -61.661 72.638 -60.861 Q73.028 -60.061 72.482 -59.332 L50.101 -32.264 V-10.71 Q50.101 -9.894 49.555 -9.346 Q49.009 -8.799 48.195 -8.799 H46.508 Z M47.34 -37.005  63.317 -56.533 H31.264 L47.34 -37.005 Z"/></g><g id="Thin-S" transform="matrix(1 0 0 1 814.015 696)"><path d="M48.025 -10.771 Q47.401 -10.771 46.976 -11.186 Q46.551 -11.601 46.551 -12.228 V-32.946 L24.967 -58.877 Q24.762 -59.15 24.924 -59.42 Q25.086 -59.689 25.324 -59.689 H69.356 Q69.594 -59.689 69.756 -59.42 Q69.918 -59.15 69.713 -58.877 L48.129 -32.946 V-12.228 Q48.129 -11.601 47.716 -11.186 Q47.302 -10.771 46.678 -10.771 H48.025 Z M47.34 -37.005  63.317 -56.533 H31.264 L47.34 -37.005 Z"/></g><g id="Ultralight-S" transform="matrix(1 0 0 1 517.792 696)"><path d="M48.935 -11.954 Q48.425 -11.954 48.08 -12.29 Q47.735 -12.625 47.735 -13.138 V-33.356 L26.629 -58.604 Q26.629 -58.604 26.654 -58.555 Q26.679 -58.505 26.53 -58.505 H68.15 Q68.001 -58.505 68.026 -58.555 Q68.051 -58.604 68.051 -58.604 L46.946 -33.356 V-13.138 Q46.946 -12.625 46.612 -12.29 Q46.278 -11.954 45.768 -11.954 H48.935 Z M47.34 -37.005  63.317 -56.533 H31.264 L47.34 -37.005 Z"/></g></g></svg>